# xmcd
#
# Track frame offsets: 
#        150
#        9054
#        15306
#        24207
#        34049
#        42093
#        52010
#        61221
#        69543
#        90881
#        103676
#        115184
#        128669
#
# Disc length: 1879 seconds
#
# Revision: 0
# Processed by: cddbd v1.5.2PL0 Copyright (c) Steve Scherf et al.
# Submitted via: ExactAudioCopy v1.0b1
#
DISCID=8c07550d
DTITLE=Briley and Robert E. Ackerman - Briley and Gradpa Praising The Lo
DTITLE=rd
DYEAR=2007
DGENRE=Gospel
TTITLE0=He's Got The Whole World In His Hands
TTITLE1=Jesus Loves The Little Children
TTITLE2=Do Lord (Way Beyond the Blue)
TTITLE3=Kumbayah
TTITLE4=This Little Light Of Mine
TTITLE5=Amazing Grace
TTITLE6=Jesus Loves Me
TTITLE7=Away In A Manger
TTITLE8=When He Was on The Cross
TTITLE9=Family of God
TTITLE10=Love Our Neighbor
TTITLE11=He Was There All the Time
TTITLE12=They'll Kknow We are Christians
EXTD=
EXTT0=
EXTT1=
EXTT2=
EXTT3=
EXTT4=
EXTT5=
EXTT6=
EXTT7=
EXTT8=
EXTT9=
EXTT10=
EXTT11=
EXTT12=
PLAYORDER=
